# Blender v3.0.0 OBJ File: ''
# www.blender.org
mtllib bunny_centered_247_faces.mtl
o bunny
v -0.656552 0.484919 0.081312
v -0.602481 0.208654 -0.032071
v -0.014316 0.379667 0.115633
v -0.344983 -0.422507 0.354302
v 0.373929 0.441713 0.009272
v -0.330926 0.642461 0.249783
v 0.842337 -0.174030 0.119117
v -0.451003 0.688161 -0.089070
v -0.379680 0.647352 -0.101710
v -0.366555 0.875630 -0.695311
v 0.164159 0.388753 0.225105
v 0.172856 0.397095 -0.118886
v -0.435164 -0.540881 -0.150341
v -0.667287 0.272635 0.354322
v -0.576399 -0.066498 0.223077
v -0.072915 -0.358824 -0.182199
v -0.426030 0.277577 -0.178784
v -0.661560 0.629465 0.088040
v -0.514637 0.674871 0.194564
v 0.424417 0.102949 -0.303640
v -0.523032 0.632479 -0.116580
v -0.659482 0.054602 0.082135
v -0.544968 0.833861 -0.510653
v -0.266960 0.653804 0.044336
v -0.698499 0.300174 0.097026
v -0.541273 0.450889 0.455252
v -0.476599 0.931655 -0.639865
v -0.275251 -0.261728 -0.192830
v -0.277829 -0.347449 0.033358
v -0.486664 0.243659 0.423646
v 0.190444 0.016830 -0.465036
v -0.412326 0.327976 0.424263
v 0.145059 0.918165 -0.374227
v 0.693612 0.108117 -0.046576
v 0.743543 -0.336507 -0.144911
v 0.842840 -0.344809 -0.044729
v -0.412664 0.524096 -0.172459
v -0.404507 0.015381 0.368703
v 0.254728 -0.313759 0.477764
v 0.775981 -0.456973 0.084369
v 0.639771 -0.016977 -0.233628
v -0.393131 -0.537180 0.128391
v -0.327621 0.265040 0.287786
v -0.631965 0.514191 0.304648
v -0.242670 0.546090 -0.032357
v 0.069115 -0.496156 0.322203
v 0.416932 -0.380750 0.393296
v 0.394903 0.118312 0.395551
v -0.400072 -0.145413 0.327826
v 0.759328 -0.154854 -0.026278
v 0.382462 -0.055308 0.467404
v 0.746745 -0.321119 0.246825
v 0.630577 -0.335706 0.247011
v -0.312560 0.580128 -0.097272
v 0.463442 -0.532986 -0.105064
v -0.403849 0.685559 -0.640910
v -0.483466 0.603409 -0.426808
v 0.235765 0.153523 0.367847
v -0.234910 -0.218289 0.306385
v -0.237270 -0.542260 -0.215299
v -0.166533 0.034299 0.359895
v 0.721952 -0.153572 0.119217
v -0.111964 0.157688 0.326319
v 0.217109 -0.150236 0.500853
v 0.428276 0.330706 0.255741
v -0.185268 -0.390699 0.314325
v -0.172435 0.393587 0.116080
v -0.052563 0.887578 -0.122386
v -0.059661 0.022652 0.360077
v -0.024735 -0.337117 0.278450
v 0.181627 0.075964 0.471912
v -0.023641 -0.444997 0.456026
v 0.164438 0.242132 -0.279537
v 0.092530 -0.386513 0.408064
v 0.078105 0.990840 -0.283762
v -0.267305 -0.421703 0.111342
v -0.108381 -0.032811 -0.313019
v -0.163397 -0.537082 -0.393674
v 0.029226 -0.065704 0.487209
v 0.100511 0.723493 -0.164436
v -0.138875 -0.528013 0.350357
v 0.458152 -0.436059 -0.306420
v 0.645760 -0.303377 -0.160405
v -0.008152 -0.524853 0.463997
v 0.525580 0.256148 -0.196327
v -0.313798 0.510006 0.229555
v 0.645783 0.063088 0.271766
v 0.541747 -0.149492 0.357123
v -0.011567 0.088262 -0.341027
v 0.164042 0.794004 -0.298579
v 0.425860 -0.523983 0.351444
v -0.367102 -0.532403 0.370246
v -0.011665 -0.399706 -0.355100
v -0.562720 0.017959 -0.190198
v 0.347619 -0.550702 -0.299426
v -0.041707 -0.532293 0.089536
v -0.096601 -0.540233 0.268251
v -0.534026 0.184285 0.265412
v 0.011678 -0.516210 0.075135
v -0.635763 0.363930 -0.085635
v -0.487391 -0.503082 -0.019437
v 0.420129 -0.257494 -0.378902
v 0.352174 -0.524042 -0.209486
v -0.374042 0.675302 -0.034045
v -0.030234 -0.123212 -0.449094
v 0.569677 0.311809 0.121847
v -0.305162 -0.402272 -0.129352
v -0.245165 0.403381 -0.115923
v -0.072987 -0.501311 -0.085644
v -0.299045 0.134052 -0.292867
v 0.480137 -0.516676 0.032564
v -0.594713 -0.124660 -0.037981
v -0.380087 -0.129437 -0.271312
v -0.151700 0.334084 -0.199861
v 0.400510 -0.527615 -0.043858
v -0.174973 -0.547269 0.172343
v -0.134613 -0.532284 0.041644
v -0.159182 -0.550331 -0.095959
v 0.182054 -0.360429 -0.413404
v -0.057526 -0.503815 0.242455
v 0.424269 -0.559275 0.143392
v 0.347035 -0.508292 0.257967
v 0.010968 -0.529792 0.362941
v 0.306611 -0.559635 -0.001268
v 0.200870 -0.503832 0.073005
v -0.457306 -0.266804 0.082277
v 0.333365 -0.537305 0.099900
v -0.288613 -0.552996 0.072858
v -0.223517 -0.542331 0.008809
v -0.076041 -0.512451 -0.261211
v -0.130094 -0.532334 -0.151366
vn -0.8857 0.3773 -0.2706
vn -0.8200 0.5616 -0.1109
vn -0.2108 0.9246 0.3173
vn 0.0710 -0.6502 0.7565
vn 0.5551 -0.0667 0.8291
vn -0.1633 0.3333 0.9286
vn 0.7483 0.1423 -0.6480
vn 0.9329 0.3204 -0.1645
vn 0.7099 0.5358 0.4572
vn -0.9741 0.1519 -0.1674
vn -0.2689 0.0067 0.9631
vn 0.4391 0.0390 0.8976
vn -0.6145 -0.4953 0.6140
vn 0.3749 0.0894 0.9227
vn 0.2865 0.4653 0.8375
vn -0.1199 0.5690 0.8136
vn 0.5307 -0.1432 -0.8354
vn 0.7485 0.5920 -0.2989
vn 0.0102 -0.0668 0.9977
vn -0.3291 -0.5100 0.7947
vn 0.0039 0.0474 0.9989
vn -0.0406 0.4358 0.8991
vn -0.3693 -0.3538 0.8593
vn -0.1836 0.0778 0.9799
vn 0.3741 -0.2470 0.8939
vn 0.0688 -0.3870 0.9195
vn -0.0168 0.9181 -0.3959
vn -0.1069 0.8404 0.5314
vn 0.2308 0.9676 -0.1019
vn 0.5024 0.7561 0.4193
vn 0.3121 0.7053 0.6365
vn -0.0707 0.6414 0.7639
vn -0.2842 0.1399 0.9485
vn -0.0948 0.9535 0.2860
vn -0.3644 0.3845 0.8482
vn 0.7022 0.6867 0.1881
vn 0.7838 0.2574 0.5651
vn -0.3020 0.2347 0.9240
vn 0.4314 -0.0356 0.9015
vn 0.7646 0.5562 0.3257
vn -0.5019 0.6509 0.5696
vn -0.8223 0.5057 0.2609
vn -0.5458 0.0411 0.8369
vn -0.7622 -0.0263 -0.6468
vn 0.4364 -0.2282 0.8703
vn 0.8919 -0.2417 -0.3822
vn 0.5513 0.5519 0.6257
vn 0.4121 0.5271 0.7432
vn 0.0109 0.9907 -0.1353
vn 0.5998 -0.0848 0.7956
vn 0.8067 0.2255 0.5462
vn 0.5671 0.6229 0.5388
vn 0.1127 0.9935 0.0134
vn 0.8715 -0.4616 -0.1655
vn 0.5036 0.3504 -0.7897
vn 0.3426 -0.7486 0.5676
vn -0.2156 -0.7298 0.6488
vn -0.5737 -0.4771 0.6658
vn 0.3084 -0.9393 -0.1503
vn 0.4869 -0.1387 -0.8624
vn -0.1244 -0.5657 0.8151
vn -0.2363 0.3739 0.8969
vn 0.1278 -0.9719 0.1975
vn 0.2072 -0.8487 -0.4866
vn 0.5579 -0.4556 -0.6937
vn 0.8702 -0.1628 0.4650
vn -0.4243 -0.8909 0.1620
vn 0.0598 -0.9938 0.0936
vn -0.5904 -0.3738 -0.7154
vn 0.6447 -0.7469 0.1625
vn -0.4549 0.0075 -0.8905
vn 0.0482 0.5252 -0.8496
vn -0.5962 0.7331 -0.3273
vn -0.1260 -0.9907 0.0522
vn 0.0947 -0.9936 0.0612
vn 0.2804 0.1168 -0.9527
vn 0.9805 -0.1486 -0.1288
vn 0.1570 -0.6563 -0.7380
vn 0.7458 0.6076 -0.2731
vn 0.1809 -0.2165 -0.9594
vn 0.0085 -0.9988 0.0492
vn -0.3261 -0.6403 -0.6955
vn -0.6506 0.1001 -0.7528
vn -0.9041 -0.0956 -0.4166
vn -0.9546 -0.2897 -0.0701
vn 0.4426 -0.1278 -0.8876
vn -0.0238 0.7451 -0.6665
vn 0.4235 0.5863 -0.6906
vn -0.8173 -0.5271 -0.2327
vn -0.9931 0.0343 0.1125
vn -0.7304 -0.0342 -0.6822
vn -0.9963 -0.0032 0.0861
vn -0.9662 -0.1515 0.2087
vn -0.7820 -0.3413 0.5215
vn -0.3845 -0.5419 -0.7474
vn -0.7868 0.4489 0.4236
vn 0.1418 -0.9838 0.1095
vn -0.8425 -0.4592 0.2817
vn 0.5338 0.3976 -0.7463
vn 0.5096 0.6134 -0.6033
vn -0.4475 0.8181 -0.3613
vn -0.8654 -0.1839 -0.4661
vn -0.1044 0.9865 0.1263
vn -0.7859 -0.4088 0.4639
vn -0.6334 -0.7067 -0.3152
vn -0.5543 -0.0150 -0.8322
vn -0.4525 0.0820 -0.8880
vn -0.3583 -0.4062 -0.8406
vn -0.3492 -0.9314 -0.1024
vn -0.1417 -0.9878 0.0651
vn -0.3349 0.2321 -0.9132
vn 0.3203 0.4212 -0.8485
vn 0.0779 0.4230 -0.9028
vn -0.6380 0.4427 -0.6300
vn -0.6721 -0.3866 -0.6316
vn -0.1784 -0.9832 0.0378
vn 0.2154 -0.9719 0.0949
vn -0.0059 -0.9981 0.0608
vn -0.0047 -0.9979 0.0652
vn -0.6991 -0.6099 -0.3732
vn -0.2173 0.2392 -0.9463
vn 0.0332 -0.4954 -0.8681
vn 0.4231 -0.8921 0.1587
vn -0.0019 -0.9989 0.0477
vn 0.1828 -0.9820 -0.0482
vn 0.0976 -0.9948 0.0282
vn -0.5409 -0.8331 0.1157
vn 0.0625 -0.9826 0.1749
vn -0.0545 -0.9967 0.0599
vn 0.0951 -0.9954 0.0123
vn 0.7973 -0.5253 0.2972
usemtl None
s 1
f 21//1 18//2 19//3
f 30//4 32//5 26//6
f 41//7 34//8 62//9
f 1//10 18//2 21//1
f 38//11 43//12 98//13
f 51//14 48//15 71//16
f 83//17 41//7 50//18
f 50//18 41//7 62//9
f 51//14 71//16 64//19
f 49//20 61//21 38//11
f 38//11 61//21 43//12
f 61//21 63//22 43//12
f 61//21 49//20 59//23
f 74//24 47//25 39//26
f 12//27 11//28 5//29
f 63//22 67//30 43//12
f 48//15 65//31 58//32
f 59//23 69//33 61//21
f 3//34 67//30 63//22
f 66//35 69//33 59//23
f 34//8 106//36 87//37
f 69//33 63//22 61//21
f 70//38 69//33 66//35
f 62//9 52//39 7//40
f 63//22 11//28 3//34
f 39//26 51//14 64//19
f 65//31 5//29 11//28
f 4//41 66//35 76//42
f 11//28 58//32 65//31
f 71//16 69//33 79//43
f 1//10 21//1 100//44
f 52//39 62//9 53//45
f 74//24 64//19 79//43
f 64//19 71//16 79//43
f 58//32 11//28 63//22
f 36//46 50//18 7//40
f 24//47 68//48 104//49
f 47//25 88//50 39//26
f 32//5 86//51 26//6
f 26//6 86//51 6//52
f 43//12 32//5 30//4
f 75//53 90//54 33//55
f 53//45 47//25 91//56
f 81//57 4//41 92//58
f 87//37 51//14 88//50
f 32//5 67//30 86//51
f 87//37 106//36 65//31
f 32//5 43//12 67//30
f 53//45 88//50 47//25
f 55//59 35//60 36//46
f 87//37 48//15 51//14
f 87//37 65//31 48//15
f 91//56 47//25 74//24
f 84//61 72//62 81//57
f 62//9 87//37 53//45
f 121//63 52//39 53//45
f 95//64 82//65 55//59
f 90//54 24//47 80//66
f 103//67 130//68 78//69
f 40//70 7//40 52//39
f 53//45 87//37 88//50
f 77//71 73//72 89//73
f 90//54 75//53 24//47
f 125//74 99//75 130//68
f 36//46 40//70 55//59
f 84//61 74//24 72//62
f 54//76 90//54 80//66
f 39//26 88//50 51//14
f 75//53 68//48 24//47
f 45//77 80//66 24//47
f 56//78 9//79 37//80
f 125//74 46//81 99//75
f 60//82 16//83 78//69
f 2//84 25//85 100//44
f 102//86 83//17 82//65
f 114//87 108//88 3//34
f 66//35 4//41 81//57
f 112//89 22//90 94//91
f 101//92 76//42 29//93
f 15//94 22//90 112//89
f 16//83 28//95 77//71
f 91//56 121//63 53//45
f 82//65 83//17 55//59
f 1//10 44//96 18//2
f 97//97 81//57 92//58
f 4//41 76//42 42//98
f 9//79 56//78 10//99
f 41//7 85//100 34//8
f 86//51 24//47 6//52
f 40//70 36//46 7//40
f 86//51 45//77 24//47
f 34//8 87//37 62//9
f 108//88 45//77 67//30
f 62//9 7//40 50//18
f 25//85 2//84 98//13
f 22//90 98//13 2//84
f 12//27 3//34 11//28
f 27//101 23//102 8//103
f 10//99 27//101 8//103
f 21//1 19//3 8//103
f 25//85 44//96 1//10
f 104//49 19//3 24//47
f 92//58 4//41 42//98
f 6//52 19//3 26//6
f 8//103 19//3 104//49
f 8//103 104//49 9//79
f 34//8 85//100 106//36
f 108//88 67//30 3//34
f 45//77 86//51 67//30
f 24//47 19//3 6//52
f 85//100 5//29 106//36
f 48//15 58//32 71//16
f 5//29 65//31 106//36
f 75//53 104//49 68//48
f 10//99 8//103 9//79
f 54//76 104//49 33//55
f 74//24 39//26 64//19
f 21//1 8//103 23//102
f 69//33 74//24 79//43
f 69//33 70//38 74//24
f 58//32 63//22 69//33
f 54//76 80//66 45//77
f 76//42 59//23 29//93
f 44//96 26//6 19//3
f 30//4 26//6 14//104
f 49//20 38//11 15//94
f 38//11 98//13 15//94
f 72//62 74//24 70//38
f 76//42 66//35 59//23
f 15//94 98//13 22//90
f 72//62 70//38 66//35
f 19//3 18//2 44//96
f 81//57 72//62 66//35
f 69//33 71//16 58//32
f 26//6 44//96 14//104
f 57//105 27//101 56//78
f 12//27 85//100 73//72
f 77//71 89//73 105//106
f 21//1 23//102 27//101
f 57//105 21//1 27//101
f 105//106 93//107 16//83
f 57//105 37//80 21//1
f 105//106 16//83 77//71
f 14//104 44//96 25//85
f 113//108 112//89 94//91
f 103//67 124//109 125//74
f 1//10 100//44 25//85
f 99//75 109//110 130//68
f 42//98 76//42 101//92
f 2//84 17//111 94//91
f 89//73 20//112 31//113
f 28//95 112//89 113//108
f 100//44 21//1 37//80
f 101//92 107//114 13//115
f 22//90 2//84 94//91
f 29//93 28//95 107//114
f 29//93 107//114 101//92
f 16//83 93//107 78//69
f 20//112 41//7 31//113
f 122//116 46//81 125//74
f 50//18 35//60 83//17
f 96//117 97//97 116//118
f 96//117 116//118 117//119
f 96//117 117//119 118//120
f 104//49 54//76 9//79
f 54//76 37//80 9//79
f 3//34 12//27 114//87
f 20//112 89//73 73//72
f 54//76 108//88 37//80
f 114//87 12//27 73//72
f 5//29 85//100 12//27
f 108//88 114//87 17//111
f 114//87 110//121 17//111
f 35//60 50//18 36//46
f 85//100 41//7 20//112
f 85//100 20//112 73//72
f 114//87 73//72 110//121
f 100//44 37//80 17//111
f 60//82 13//115 107//114
f 17//111 37//80 108//88
f 55//59 83//17 35//60
f 45//77 108//88 54//76
f 83//17 102//86 41//7
f 94//91 17//111 110//121
f 77//71 110//121 73//72
f 107//114 28//95 16//83
f 60//82 107//114 16//83
f 82//65 119//122 102//86
f 2//84 100//44 17//111
f 102//86 31//113 41//7
f 102//86 119//122 31//113
f 28//95 113//108 77//71
f 113//108 110//121 77//71
f 95//64 78//69 82//65
f 93//107 119//122 82//65
f 99//75 120//123 96//117
f 82//65 78//69 93//107
f 33//55 104//49 75//53
f 120//123 97//97 96//117
f 27//101 10//99 56//78
f 93//107 105//106 119//122
f 94//91 110//121 113//108
f 119//122 105//106 31//113
f 95//64 103//67 78//69
f 105//106 89//73 31//113
f 54//76 33//55 90//54
f 121//63 91//56 122//116
f 91//56 123//124 122//116
f 123//124 81//57 97//97
f 37//80 57//105 56//78
f 40//70 111//125 55//59
f 55//59 111//125 115//126
f 40//70 121//63 111//125
f 98//13 14//104 25//85
f 40//70 52//39 121//63
f 115//126 103//67 95//64
f 103//67 125//74 130//68
f 98//13 30//4 14//104
f 46//81 120//123 99//75
f 112//89 126//127 15//94
f 49//20 15//94 126//127
f 28//95 29//93 126//127
f 122//116 125//74 124//109
f 43//12 30//4 98//13
f 121//63 122//116 127//128
f 60//82 128//129 13//115
f 42//98 101//92 13//115
f 126//127 59//23 49//20
f 127//128 122//116 124//109
f 128//129 42//98 13//115
f 29//93 59//23 126//127
f 103//67 115//126 124//109
f 60//82 129//130 128//129
f 78//69 130//68 60//82
f 116//118 42//98 128//129
f 129//130 60//82 130//68
f 118//120 129//130 130//68
f 131//131 118//120 130//68
f 126//127 112//89 28//95
f 91//56 74//24 84//61
f 91//56 84//61 123//124
f 97//97 42//98 116//118
f 55//59 115//126 95//64
f 130//68 109//110 131//131
f 117//119 129//130 118//120
f 92//58 42//98 97//97
f 84//61 81//57 123//124
